<?xml version="1.0" encoding="UTF-8"?><svg id="Layer_2" xmlns="http://www.w3.org/2000/svg" viewBox="0 0 162.3 147"><defs><style>.cls-1{fill:#f7f6f4;}</style></defs><g id="Layer_1-2"><path class="cls-1" d="m146.4,0h-41.7l-31.86,11.92L63.6,0H21.6L7.5,36.3h0l7.61,8.83L0,127.8s15.6,19.2,15.6,19.2l.29-.02v.02c.01-.05,40.5-2.38,40.51-2.4l12.9-70.8,25.02-7.79-4.02,21.89h-17.4c-.06.04-6.74,37.23-6.9,37.2.08.03,0,.25,0,.3h0l15.6,19.2h57.6l23.1-125.4m-2.22,0h-17.17l3.18-17.49,13.99,17.49ZM40.89,124.91l12.59-69.1,14.24,17.53-12.68,69-14.15-17.42ZM63.29,1.71l8.49,10.61-11.18,4.18,2.69-14.79ZM9.96,36.63l6.54.87-1.11,6.05-5.43-6.92ZM1.61,127.71l17.71-1.04-3.41,18.64L1.61,127.71Zm19.5-1.15l18.83-1.11,14.11,17.7-36.35,2.34,3.41-18.94Zm47.45-53.9l-14.71-18.1,45.15-14.05-4.38,23.84-26.06,8.31Zm-.94,52.74h17.36l-3.13,17.79-14.23-17.79Zm18.98,0h36.04l14.38,17.7h-53.63l3.2-17.7Zm51.47,17.29l-14.4-17.72,18.96-104.27h17.56l-22.12,121.99Z"/></g></svg>